<?xml version="1.0" encoding="UTF-8" standalone="no"?>
<!-- Created with Inkscape (http://www.inkscape.org/) -->

<svg
   xmlns:dc="http://purl.org/dc/elements/1.1/"
   xmlns:cc="http://creativecommons.org/ns#"
   xmlns:rdf="http://www.w3.org/1999/02/22-rdf-syntax-ns#"
   xmlns:svg="http://www.w3.org/2000/svg"
   xmlns="http://www.w3.org/2000/svg"
   xmlns:sodipodi="http://sodipodi.sourceforge.net/DTD/sodipodi-0.dtd"
   xmlns:inkscape="http://www.inkscape.org/namespaces/inkscape"
   width="210mm"
   height="297mm"
   viewBox="0 0 210 297"
   version="1.1"
   id="svg8"
   inkscape:version="0.92.2 5c3e80d, 2017-08-06"
   sodipodi:docname="iron_ore.svg">
  <defs
     id="defs2" />
  <sodipodi:namedview
     id="base"
     pagecolor="#ffffff"
     bordercolor="#666666"
     borderopacity="1.0"
     inkscape:pageopacity="0.0"
     inkscape:pageshadow="2"
     inkscape:zoom="0.35"
     inkscape:cx="400"
     inkscape:cy="560"
     inkscape:document-units="mm"
     inkscape:current-layer="layer1"
     showgrid="false"
     inkscape:window-width="1366"
     inkscape:window-height="661"
     inkscape:window-x="0"
     inkscape:window-y="0"
     inkscape:window-maximized="1" />
  <metadata
     id="metadata5">
    <rdf:RDF>
      <cc:Work
         rdf:about="">
        <dc:format>image/svg+xml</dc:format>
        <dc:type
           rdf:resource="http://purl.org/dc/dcmitype/StillImage" />
        <dc:title></dc:title>
      </cc:Work>
    </rdf:RDF>
  </metadata>
  <g
     inkscape:label="Layer 1"
     inkscape:groupmode="layer"
     id="layer1">
    <path
       style="fill:#502d16;stroke-width:0.26458332"
       d="m 142.11905,163.19643 c -1.29055,10.84585 -1.9003,14.27306 -7.22791,21.72814 -4.03452,5.64563 -10.45221,16.82544 -23.76614,16.82544 -15.026202,-1e-5 -23.328107,-3.80755 -32.262757,-10.16896 -4.969206,-3.53804 -12.744715,-5.77761 -15.732166,-13.59105 -2.685224,-7.023 -6.433644,-13.63401 -6.433644,-20.84119 0,-8.97445 6.845021,-9.66211 10.154645,-18.4074 3.370073,-8.90502 -0.510272,-17.51483 6.716061,-22.41874 4.239932,-2.87728 15.740026,-7.87866 23.18651,-6.74465 8.566091,1.30452 13.234441,9.01722 19.663011,9.01722 12.40663,0 18.57826,-7.46418 27.85517,-0.90665 8.19367,5.79183 9.34935,14.51358 12.62633,24.9667 2.252,7.18359 -13.92541,13.36654 -14.77911,20.54114 z"
       id="path12"
       inkscape:connector-curvature="0"
       sodipodi:nodetypes="sssssssssssss" />
    <path
       style="fill:none;stroke:#000000;stroke-width:0.26458332px;stroke-linecap:butt;stroke-linejoin:miter;stroke-opacity:1"
       d="m 77.863093,134.47024 c 1.007938,0 3.023812,-1.00794 3.023812,0 0,1.00793 -4.031747,0 -3.023812,0 1.259922,0 2.54431,0.24709 3.779763,0 0.24709,-0.0494 -0.251983,-0.75596 0,-0.75596 0.35636,0 0.503968,0.50397 0.755952,0.75596 0.503968,-0.50397 0.874429,-1.19317 1.511906,-1.51191 0.22538,-0.11269 -0.251984,0.75595 0,0.75595 0.356359,0 0.596582,-0.43721 0.755952,-0.75595 0.112691,-0.22538 -0.251984,-0.75595 0,-0.75595 1.087379,0 2.267857,1.82343 2.267857,0.75595 0,-0.35636 -1.007938,-0.50397 -0.755952,-0.75595 0.35636,-0.35636 1.007936,0 1.511904,0 0.251984,0 -0.755952,0.25198 -0.755952,0 0,-0.25199 0.577773,0.17818 0.755952,0 0.451781,-0.45178 -0.817094,-1.5119 0.755951,-1.5119 0.251987,0 0.251987,0.75595 0,0.75595 -0.251984,0 -0.22538,-0.64327 0,-0.75595 4.640091,-0.35636 0.577774,0.17817 0.755955,0 0.39842,-0.39843 1.113483,-0.35754 1.511903,-0.75596 0.178181,-0.17818 -0.934133,0.17818 -0.755952,0 0.398423,-0.39842 1.25992,-0.25198 1.511906,-0.75595 0.159367,-0.31874 -0.755954,-0.39959 -0.755954,-0.75595 0,-0.25199 0.54629,0.13977 0.755954,0 0.593016,-0.39535 1.286523,-0.83576 1.511903,-1.51191 0.112692,-0.33807 -1.007935,-0.50397 -0.755951,-0.75595 0.356359,-0.35636 1.007935,0 1.511903,0 0.251986,0 -0.868643,0.22538 -0.755952,0 0.318739,-0.63748 1.007938,-1.00793 1.511906,-1.51191 0.251984,-0.25198 -1.007938,1.00794 -0.755954,0.75596 0.50397,-0.50397 1.007938,-1.00794 1.511906,-1.51191 0.251984,-0.25198 -0.399592,0.75595 -0.755952,0.75595 -0.251984,0 -0.178181,-0.57777 0,-0.75595 0.39842,-0.39842 0.948449,-0.75595 1.511903,-0.75595 0.35636,0 -0.503967,1.00794 -0.755951,0.75595 -0.35636,-0.35636 -0.450763,-1.28652 0,-1.5119 4.264276,2.13214 0.37116,0.38479 0.755951,0 0.35636,-0.35636 1.286524,0.45076 1.511906,0 0.251984,-0.50397 -0.357531,-1.11348 -0.755951,-1.51191 -0.178181,-0.17818 0.251984,0.75596 0,0.75596 -0.251987,0 -0.178181,-0.57778 0,-0.75596 0.356359,-0.35636 1.511903,0.50397 1.511903,0 0,-0.35636 -0.399592,-0.75595 -0.755952,-0.75595 -0.251984,0 0,1.00794 0,0.75595 0,-0.50396 0,-1.00793 0,-1.5119 0,-0.25199 -0.178181,0.93413 0,0.75595 0.398423,-0.39842 0.251984,-1.25992 0.755952,-1.5119 0.318738,-0.15937 0.755952,0.39959 0.755952,0.75595 0,0.25198 -0.577771,0.17818 -0.755952,0 -0.178178,-0.17818 0,-0.50397 0,-0.75595 0,-0.25199 -0.251984,-0.75596 0,-0.75596 0.251984,0 0.251984,0.75596 0,0.75596 -0.251984,0 -0.178178,-0.57778 0,-0.75596 0.178181,-0.17818 0.577773,0.17818 0.755952,0 0.178181,-0.17818 -0.251984,-0.75595 0,-0.75595 0.356359,0 0.755954,1.11231 0.755954,0.75595 0,-0.56345 -0.357532,-1.11348 -0.755954,-1.5119 -0.178179,-0.17818 0,1.00794 0,0.75595 0,-4.87169 0,1.34392 0,-1.5119"
       id="path15"
       inkscape:connector-curvature="0" />
    <path
       style="fill:none;stroke:#000000;stroke-width:0.26458332px;stroke-linecap:butt;stroke-linejoin:miter;stroke-opacity:1"
       d="m 125.48809,121.61905 c 0.44248,1.76991 0.53544,3.071 1.51191,4.53571 0.39534,0.59302 1.19317,0.87443 1.5119,1.51191 0.11269,0.22538 -0.11269,0.53057 0,0.75595 0.15937,0.31874 0.59659,0.43721 0.75596,0.75595 0.11269,0.22538 -0.1127,0.53057 0,0.75595 0.15937,0.31874 0.59658,0.43722 0.75595,0.75596 0.11269,0.22538 -0.17818,0.57777 0,0.75595 0.17818,0.17818 0.57777,-0.17818 0.75595,0 0.35636,0.35636 -0.35636,1.15554 0,1.5119 0.17818,0.17818 0.75595,-0.25198 0.75595,0 0,0.35636 -0.75595,0.3996 -0.75595,0.75595 0,0.25199 0.53057,-0.11269 0.75595,0 0.31874,0.15937 0.59659,0.43722 0.75596,0.75596 0.11269,0.22538 -0.1127,0.53057 0,0.75595 0.31873,0.63747 1.19316,0.87443 1.5119,1.5119 0.11269,0.22538 -0.11269,0.53058 0,0.75596 0.15937,0.31873 0.59658,0.43721 0.75595,0.75595 0.11269,0.22538 -0.11269,0.53057 0,0.75595 0.15937,0.31874 0.59658,0.43721 0.75595,0.75595 0.1127,0.22539 -0.17817,0.57778 0,0.75595 0.17819,0.17819 0.57778,-0.17817 0.75596,0 0.17818,0.17819 -0.11269,0.53058 0,0.75596 0.15936,0.31873 0.75595,0.39959 0.75595,0.75595 0,0.25198 -0.75595,0.25198 -0.75595,0 0,-0.25198 0.57777,-0.17818 0.75595,0 0.17818,0.17818 -0.17818,0.57777 0,0.75595 0.35636,0.35636 1.06114,-0.22538 1.5119,0 0.31874,0.15937 0.43722,0.59659 0.75596,0.75596 0.41009,0.20504 2.81696,-0.20685 3.02381,0 0.17817,0.17817 -0.17818,0.57777 0,0.75595 0.35636,0.35636 1.5119,-0.50397 1.5119,0 0,0.25198 -0.75595,-0.25199 -0.75595,0 0,0.35636 0.39959,0.75595 0.75595,0.75595 0.35636,0 0.50397,-1.00794 0.75595,-0.75595 0.25199,0.25198 -0.75595,0.39959 -0.75595,0.75595 0,0.25198 0.50397,0 0.75595,0 0.25199,0 0.50397,0 0.75596,0"
       id="path17"
       inkscape:connector-curvature="0" />
    <path
       style="fill:none;stroke:#000000;stroke-width:0.26458332px;stroke-linecap:butt;stroke-linejoin:miter;stroke-opacity:1"
       d="m 96.761905,153.36905 c 0.251984,-1.00794 0.552196,-2.00503 0.755951,-3.02381 0.09884,-0.49418 -0.279551,-1.09258 0,-1.51191 0.395346,-0.59302 1.193168,-0.87443 1.511904,-1.5119 0.112691,-0.22539 -0.755952,0.25198 -0.755952,0 0,-0.35636 0.558281,-0.45945 0.755952,-0.75595 0.312549,-0.46883 0.443404,-1.04309 0.755954,-1.51191 0.197673,-0.29651 0.755956,-0.39959 0.755956,-0.75595 0,-0.25199 -0.50397,0 -0.755956,0 0,-0.50397 -0.225383,-1.06115 0,-1.51191 0.225376,-0.45076 1.511906,0.50397 1.511906,0 0,-0.56345 -1.00794,-1.00793 -0.75595,-1.5119 0.22538,-0.45076 1.00793,0 1.5119,0 0.25199,0 -0.75595,0.25198 -0.75595,0 0,-0.35636 0.43721,-0.59659 0.75595,-0.75596 0.22538,-0.11268 0.75595,0.25199 0.75595,0 0,-0.35635 -0.75595,-0.39959 -0.75595,-0.75595 0,-0.50396 1.5119,0.50397 1.5119,0 0,-0.56345 -0.35752,-1.11348 -0.75595,-1.5119 -0.17818,-0.17818 -0.17818,0.57777 0,0.75595 0.17818,0.17818 0.50397,0 0.75595,0 0.25199,0 0.75596,0.25199 0.75596,0 0,-0.56345 -0.75596,-0.94845 -0.75596,-1.5119 0,-0.35636 0.43722,0.59658 0.75596,0.75595 0.22538,0.11269 0.53057,0.11269 0.75595,0 0.31874,-0.15937 0.75595,-0.3996 0.75595,-0.75595 0,-0.35636 -1.11231,-0.75596 -0.75595,-0.75596 0.56345,0 0.94845,0.75596 1.5119,0.75596 0.35636,0 -0.75595,-0.3996 -0.75595,-0.75596 0,-2.50717 1.41649,0 0.75595,0 -0.25198,0 0,-0.50396 0,-0.75595 0,-0.25198 -0.25198,-0.75595 0,-0.75595 0.25199,0 -0.17817,0.57777 0,0.75595 0.17818,0.17818 0.75596,-0.25198 0.75596,0 0,0.25199 -0.75596,0.25199 -0.75596,0 0,-0.35636 0.43722,-0.59658 0.75596,-0.75595 0.22538,-0.11269 0.75595,0.25198 0.75595,0 0,-0.35636 -0.75595,-0.39959 -0.75595,-0.75595 0,-0.25199 0.64326,0.22538 0.75595,0 0.22538,-0.45077 -0.35636,-1.15555 0,-1.51191 0.25198,-0.25198 0.75595,1.11231 0.75595,0.75595 0,-0.56345 -0.75595,-0.94845 -0.75595,-1.5119 0,-0.35636 0.39959,0.75595 0.75595,0.75595 0.50397,0 -0.50397,-1.5119 0,-1.5119 0.25198,0 -0.17818,0.93413 0,0.75595 0.39842,-0.39842 0.75595,-0.94845 0.75595,-1.5119 0,-0.35636 -0.75595,0.39959 -0.75595,0.75595 0,0.25198 0.50397,0 0.75595,0 0.25199,0 0.75596,0.25198 0.75596,0 0,-0.56346 -0.35753,-1.11349 -0.75596,-1.51191 -0.17818,-0.17818 -0.17818,0.57777 0,0.75596 0.17818,0.17817 0.57778,0.17817 0.75596,0 0.39842,-0.39843 0.35753,-1.11349 0.75595,-1.51191 0.17818,-0.17818 -0.17818,0.57777 0,0.75595 0.17818,0.17818 0.75595,0.25199 0.75595,0 0,-0.35636 -0.75595,-0.39959 -0.75595,-0.75595 0,-0.25198 0.57777,0.17818 0.75595,0 0.17818,-0.17818 -0.25198,-0.75595 0,-0.75595 2.50718,0 0,1.41648 0,0.75595 0,-0.25198 0.50397,0 0.75595,0 0.25199,0 0.75596,-0.25198 0.75596,0 0,0.25198 -1.00794,0 -0.75596,0 0.50397,0 1.00794,0 1.51191,0 0.25198,0 -0.96562,0.13978 -0.75595,0 3.95592,-2.63728 8.06349,-5.03968 12.09523,-7.55952"
       id="path19"
       inkscape:connector-curvature="0" />
    <path
       style="fill:none;stroke:#000000;stroke-width:0.26458332px;stroke-linecap:butt;stroke-linejoin:miter;stroke-opacity:1"
       d="m 123.97619,166.97619 c -5.87151,0 -11.96146,0 -15.875,0 -0.25198,0 1.00793,0 0.75595,0 -0.64492,0 -5.01079,-0.14044 -5.29167,0 -0.31873,0.15937 -0.59658,0.43721 -0.75595,0.75595 -0.11269,0.22538 0.25199,0.75595 0,0.75595 -0.56345,0 -1.11348,-0.35753 -1.5119,-0.75595 -0.17818,-0.17818 1.00794,0 0.75595,0 -4.955687,0 2.68783,0 -2.267856,0 -0.251984,0 0.934136,-0.17818 0.755956,0 -0.39843,0.39842 -1.113488,0.35753 -1.51191,0.75595 -0.178179,0.17818 1.00794,0 0.755954,0 -4.955688,0 2.687826,0 -2.267858,0 -0.251984,0 -0.755951,0.25199 -0.755951,0 0,-0.25198 1.007935,0 0.755951,0 -0.503967,0 -1.007938,0 -1.511906,0 -0.251983,0 -0.755951,0.25199 -0.755951,0 0,-0.25198 0.755951,-0.25198 0.755951,0 0,0.25199 -0.503967,0 -0.755951,0 -0.251984,0 -0.503968,0 -0.755952,0 -0.251984,0 -0.755954,0.25199 -0.755954,0 0,-0.25198 0.755954,-0.25198 0.755954,0 0,0.25199 -0.503968,0 -0.755954,0 -0.251984,0 -0.516898,0.0797 -0.755952,0 -0.534537,-0.17818 -1.007935,-0.50396 -1.511903,-0.75595 -0.50397,-0.25198 -1.259922,-0.25198 -1.511906,-0.75595 -0.159369,-0.31874 1.112311,-0.75595 0.755952,-0.75595 -0.563454,0 -0.948449,0.75595 -1.511903,0.75595 -0.35636,0 0.755951,-0.39959 0.755951,-0.75595 0,-0.35636 -0.399592,-0.75596 -0.755951,-0.75596 -0.35636,0 -0.755955,0.3996 -0.755955,0.75596 0,0.25198 0.643263,0.22538 0.755955,0 0.22538,-0.45077 0,-1.00794 0,-1.51191 0,-0.25198 0.251983,0.75595 0,0.75595 -0.251984,0 0,-0.50396 0,-0.75595 0,-0.25198 -0.251984,-0.75595 0,-0.75595 0.251983,0 0.251983,0.75595 0,0.75595 -0.503968,0 0.503967,-1.5119 0,-1.5119 -0.563454,0 -0.948452,0.75595 -1.511906,0.75595 -0.35636,0 0.91532,-0.43722 0.755951,-0.75595 -0.251984,-0.50397 -1.259919,-0.25199 -1.511903,-0.75595 -0.159369,-0.31874 1.112311,-0.75596 0.755952,-0.75596 -0.563454,0 -0.977366,0.93413 -1.511904,0.75596 -0.53454,-0.17819 -0.251986,-1.25993 -0.755954,-1.51191 -0.318735,-0.15937 -0.503968,1.00793 -0.755951,0.75595 -0.563454,-0.56345 -0.192498,-1.7044 -0.755952,-2.26785 -0.251984,-0.25199 -0.437216,0.91532 -0.755954,0.75595 -0.503968,-0.25199 -0.443405,-1.04309 -0.755952,-1.51191 -0.507698,-0.76155 -1.724046,-1.29976 -1.511903,-1.5119 0.251984,-0.25199 1.007935,1.00793 0.755951,0.75595 -0.503967,-0.50397 -0.874429,-1.19317 -1.511905,-1.51191 -0.22538,-0.11268 0.251983,0.75596 0,0.75596 -0.35636,0 -0.755952,-0.3996 -0.755952,-0.75596 0,-2.50717 1.416484,0 0.755952,0 -0.251984,0 0,-0.50396 0,-0.75595 0,-0.25198 -0.251984,-0.75595 0,-0.75595 0.251983,0 0,0.50397 0,0.75595"
       id="path21"
       inkscape:connector-curvature="0" />
    <path
       style="fill:none;stroke:#000000;stroke-width:0.26458332px;stroke-linecap:butt;stroke-linejoin:miter;stroke-opacity:1"
       d="m 88.446426,190.41071 c 2.267858,0 4.535715,0 6.803573,0 0.251984,0 0.503968,0 0.755951,0 0.251984,0 0.577774,0.17818 0.755955,0 0.178178,-0.17818 0,-0.50397 0,-0.75595 0.503967,0 1.06114,0.22538 1.511903,0 0.225383,-0.11269 -0.251984,-0.75595 0,-0.75595 0.356359,0 0.399592,0.75595 0.755952,0.75595 0.50397,0 -0.503968,-1.51191 0,-1.51191 0.563454,0 0.948451,0.75596 1.51191,0.75596 0.71271,0 0.79918,-1.51191 1.5119,-1.51191 0.35636,0 0.39959,0.75595 0.75595,0.75595 0.35636,0 0.43722,-0.59658 0.75595,-0.75595 0.71272,-0.35636 1.48649,-0.59968 2.26786,-0.75595 0.49418,-0.0988 1.06114,0.22538 1.51191,0 0.22538,-0.11269 -0.22538,-0.64326 0,-0.75595 0.45076,-0.22538 1.0338,0.15937 1.5119,0 0.33807,-0.11269 0.39959,-0.75596 0.75595,-0.75596 0.35636,0 0.3996,0.75596 0.75596,0.75596 0.35636,0 0.59658,-0.43722 0.75595,-0.75596 0.11269,-0.22538 -0.25199,-0.75595 0,-0.75595 0.56345,0 1.11348,0.35753 1.5119,0.75595 0.33598,0.33598 -2.09986,-0.084 -0.75595,-0.75595 4.28373,-2.14186 0.75595,1.07094 0.75595,0 0,-0.35636 0.3996,-0.75595 0.75596,-0.75595 0.25198,0 -0.22539,0.86864 0,0.75595 0.63747,-0.31874 0.87443,-1.19316 1.5119,-1.5119 0.22538,-0.11269 -0.22538,0.86864 0,0.75595 0.63748,-0.31874 1.11656,-0.91889 1.51191,-1.5119 0.13977,-0.20967 -0.25199,-0.75596 0,-0.75596 0.93093,0 -2.30703,3.81893 1.5119,0 0.17818,-0.17818 -0.57777,0.17818 -0.75595,0 -0.17818,-0.17818 -0.17818,-0.57777 0,-0.75595 0.50396,-0.25198 1.00793,-0.50397 1.5119,-0.75595 -0.25198,-0.25199 -0.91532,-0.43722 -0.75595,-0.75595 0.25198,-0.50397 1.11348,-0.35753 1.5119,-0.75596 0.17819,-0.17818 -0.75595,0.25199 -0.75595,0 0,-0.56345 0.35753,-1.11348 0.75595,-1.5119 0.154,-0.154 -0.56973,4.16328 1.51191,0 0.15937,-0.31874 -0.91532,-0.43721 -0.75595,-0.75595 0.25198,-0.50397 1.11348,-0.35753 1.5119,-0.75595 0.45178,-0.45179 -0.81709,-1.51191 0.75595,-1.51191 0.22589,0 -0.49763,2.50718 0.75596,0 0.62996,-1.25992 -1.51191,-0.75595 1.5119,-0.75595 0.25198,0 -0.57777,0.17818 -0.75595,0 -0.17818,-0.17818 -0.25198,-0.75596 0,-0.75596 0.25198,0 -0.22538,0.64327 0,0.75596 0.45076,0.22538 1.00793,0 1.5119,0 0.25199,0 -1.00793,0 -0.75595,0 3.44131,0 0.75595,0.35636 0.75595,-0.75596 0,-0.25198 0.50397,0 0.75596,0 0.75595,0 1.5119,0 2.26785,0 0.25199,0 -0.57777,0.17819 -0.75595,0 -0.17818,-0.17817 -0.25198,-0.75595 0,-0.75595 4.68757,0 0.75595,1.14442 0.75595,0.75595 0,-0.25198 0.57777,0.17819 0.75596,0 0.17817,-0.17817 -0.17819,-0.57777 0,-0.75595 0.17817,-0.17818 0.57777,0.17818 0.75595,0 0.17818,-0.17818 -0.17818,-0.57777 0,-0.75595 0.17818,-0.17818 0.50397,0 0.75595,0 0.50397,0 1.00794,0 1.51191,0 0.25198,0 -0.52656,0.10427 -0.75596,0 -2.56474,-1.16579 -5.03968,-2.51984 -7.55952,-3.77976"
       id="path23"
       inkscape:connector-curvature="0" />
    <path
       style="fill:none;stroke:#000000;stroke-width:0.26458332px;stroke-linecap:butt;stroke-linejoin:miter;stroke-opacity:1"
       d="m 72.571427,175.29167 c 0,-6.55159 0,-13.10318 0,-19.65477 0,-0.25198 0.251986,0.75595 0,0.75595 -0.251984,0 0.178181,-0.57777 0,-0.75595 -0.178179,-0.17818 -0.530569,0.11269 -0.755952,0 -0.318738,-0.15937 -0.437213,-0.59658 -0.755952,-0.75595 -0.225382,-0.11269 -0.577773,0.17818 -0.755951,0 -0.178181,-0.17818 0.178178,-0.57777 0,-0.75595 -0.178181,-0.17818 -0.643263,0.22538 -0.755955,0 -0.22538,-0.45077 0.35636,-1.15555 0,-1.51191 -0.251983,-0.25198 -0.399592,0.75596 -0.755951,0.75596 -0.251984,0 0.178181,-0.57778 0,-0.75596 -0.178181,-0.17818 -0.577773,0.17818 -0.755952,0 -0.181906,-0.1819 0.181904,-2.8419 0,-3.02381 -0.251984,-0.25198 -0.399595,0.75596 -0.755954,0.75596 -0.251984,0 0,-0.50397 0,-0.75596 0,-0.25198 -0.251984,-0.75595 0,-0.75595 0.251986,0 0,1.00794 0,0.75595 0,-0.75595 0,-1.5119 0,-2.26785 0,-0.50397 0.225383,-1.06115 0,-1.51191 -0.112689,-0.22538 -0.64326,0.22538 -0.755952,0 -0.22538,-0.45076 0,-1.00793 0,-1.5119 0,-0.25199 0.251984,0.75595 0,0.75595 -0.251984,0 0,-0.50397 0,-0.75595 0,-4.95569 0,2.68783 0,-2.26786 0,-0.25198 -0.209663,0.89573 0,0.75595 3.899967,-2.59997 7.559522,-5.54365 11.339285,-8.31547"
       id="path25"
       inkscape:connector-curvature="0" />
    <path
       style="fill:#501616;stroke:#000000;stroke-width:0.26458332px;stroke-linecap:butt;stroke-linejoin:miter;stroke-opacity:1"
       d="m 123.97619,166.97619 c -0.75595,-4.53571 -1.76006,-9.03699 -2.26786,-13.60714 -0.0278,-0.25045 0.50397,0 0.75595,0 0.25199,0 0.50397,0 0.75596,0 0.25198,0 0.75595,-0.25199 0.75595,0 0,0.25198 -1.00794,0 -0.75595,0 3.59368,0 1.45099,0 4.53571,0 0.83993,0 1.51846,0 3.02381,0 0.25199,0 -0.75595,0.25198 -0.75595,0 0,-0.25199 0.50397,0 0.75595,0 0.25199,0 0.75595,-0.25199 0.75595,0 0,0.25198 -0.75595,0.25198 -0.75595,0 0,-0.25199 0.50397,0 0.75595,0 0.25199,0 0.50397,0 0.75595,0 0.25199,0 0.75596,-0.25199 0.75596,0 0,0.35635 -1.11231,0.75595 -0.75596,0.75595 1.08738,0 2.26786,-1.82343 2.26786,-0.75595 0,0.35635 -1.00794,0.50396 -0.75595,0.75595 0.35636,0.35636 1.06114,-0.22538 1.5119,0 0.22539,0.11269 -0.25198,0.75595 0,0.75595 0.35636,0 0.75596,-0.39959 0.75596,-0.75595 0,-0.25199 -0.75596,0.25198 -0.75596,0 0,-0.49402 1.51191,0.26193 1.51191,0.75595 0,0.25198 -0.75595,0.25198 -0.75595,0 0,-0.25198 0.50397,0 0.75595,0 0.25198,0 0.75595,-0.25198 0.75595,0 0,0.25198 -0.57777,0.17818 -0.75595,0 -0.17818,-0.17818 -0.17818,-0.57777 0,-0.75595 0.35636,-0.35636 1.5119,0.50397 1.5119,0 0,-3.44131 -1.77284,1.01689 0,-0.75595 0.17818,-0.17818 -0.25198,-0.75596 0,-0.75596 0.35636,0 1.00794,0.50397 0.75596,0.75596 -0.25199,0.25198 -0.75596,-0.3996 -0.75596,-0.75596 0,-2.50717 1.41649,0 0.75596,0 -0.25199,0 0,-0.50396 0,-0.75595 0,-0.25198 -0.25199,-0.75595 0,-0.75595 0.35636,0 0.75595,0.39959 0.75595,0.75595 0,0.25199 -0.57777,0.17818 -0.75595,0 -0.17818,-0.17818 -0.17818,-0.57777 0,-0.75595 0.17818,-0.17818 0.57777,0.17818 0.75595,0 0.17818,-0.17818 -0.25198,-0.75595 0,-0.75595 0.25198,0 -0.25198,0.75595 0,0.75595 0.35636,0 0.75595,-0.39959 0.75595,-0.75595 0,-0.25199 -0.75595,0.25198 -0.75595,0 0,-0.35636 0.39959,-0.75596 0.75595,-0.75596 0.25198,0 -0.25198,0.75596 0,0.75596 0.35636,0 0.75595,-0.3996 0.75595,-0.75596 0,-0.35635 -1.00793,-0.50396 -0.75595,-0.75595 0.25198,-0.25198 0.39959,0.75595 0.75595,0.75595 0.35636,0 0.75596,-0.39959 0.75596,-0.75595 0,-0.25198 -0.57778,0.17818 -0.75596,0 -0.17818,-0.17818 -0.25198,-0.75595 0,-0.75595 0.35636,0 0.43722,0.59658 0.75596,0.75595 0.22538,0.11269 0.75595,0.25199 0.75595,0 0,-0.35636 -0.59658,-0.43721 -0.75595,-0.75595 -0.63748,-1.27495 1.88346,-2.16855 3.02381,-3.02381"
       id="path27"
       inkscape:connector-curvature="0" />
    <path
       style="fill:#000000;stroke:#000000;stroke-width:0.26458332px;stroke-linecap:butt;stroke-linejoin:miter;stroke-opacity:1"
       d="m 96.761905,153.36905 c 2.771825,1.25992 5.454055,2.73924 8.315475,3.77976 0.23681,0.0861 0.11269,-0.53057 0,-0.75596 -0.15937,-0.31873 -0.59658,-0.43721 -0.75595,-0.75595 -0.11269,-0.22538 0.17818,-0.57777 0,-0.75595 -0.17818,-0.17818 -0.57777,0.17818 -0.75596,0 -0.17817,-0.17818 0.17819,-0.57777 0,-0.75595 -0.17817,-0.17818 -0.53057,0.11269 -0.75595,0 -0.31874,-0.15937 -0.50396,-0.50397 -0.75595,-0.75595 -0.25199,-0.25199 -0.50397,-0.50397 -0.75595,-0.75596 -0.25199,-0.25198 -0.3996,-0.75595 -0.75595,-0.75595 -0.35636,0 -0.50397,1.00794 -0.755956,0.75595 -0.35636,-0.35636 0.225376,-1.06114 0,-1.5119 -0.112692,-0.22538 -0.577773,0.17818 -0.755954,0 -0.451779,-0.45178 0.817094,-1.51191 -0.755952,-1.51191 -0.251984,0 0.251984,0.75596 0,0.75596 -0.251984,0 0.112691,-0.53058 0,-0.75596 -0.210016,-0.42003 -1.511903,-1.26815 -1.511903,-1.5119 0,-0.57548 2.899915,-1.5119 -0.755955,-1.5119 -0.251983,0 0.178181,0.93413 0,0.75595 -2.950281,-2.95028 0.174985,-0.40599 -0.755951,-2.26786 -1.573046,-3.14609 -0.304173,0.45178 -0.755952,0 -0.398423,-0.39842 -0.357531,-1.11348 -0.755954,-1.5119 -0.178178,-0.17818 0,1.00793 0,0.75595 0,-0.50397 0.356359,-1.15555 0,-1.51191 -0.251984,-0.25198 -0.437213,0.91532 -0.755952,0.75596 -0.503967,-0.25199 -0.357529,-1.11349 -0.755951,-1.51191 -0.178181,-0.17818 0,0.50397 0,0.75595 0,-0.50397 0.22538,-1.06114 0,-1.5119 -0.112692,-0.22538 -0.530572,0.11269 -0.755952,0 -3.146094,-1.57305 0.808138,0.0522 -0.755954,-1.51191 -0.178179,-0.17818 -0.577771,0.17818 -0.755952,0 -0.356359,-0.35636 0.503968,-1.5119 0,-1.5119 -0.356359,0 -0.399592,0.75595 -0.755951,0.75595 -0.113573,0 0.0662,-0.84991 0,-1.5119 -0.22705,-2.27049 -0.503971,-4.53572 -0.755957,-6.80357"
       id="path29"
       inkscape:connector-curvature="0" />
    <path
       style="fill:none;stroke:#000000;stroke-width:0.26458332px;stroke-linecap:butt;stroke-linejoin:miter;stroke-opacity:1"
       d="m 117.17262,180.58333 c -1.76389,-1.00794 -3.56891,-1.94708 -5.29167,-3.02381 -0.30219,-0.18887 -0.75595,-0.39959 -0.75595,-0.75595 0,-0.35636 1.11231,-0.75595 0.75595,-0.75595 -0.56345,0 -0.94845,0.75595 -1.5119,0.75595 -0.35636,0 0.59658,-0.43721 0.75595,-0.75595 0.0775,-0.15507 0.10661,-2.16125 0,-2.26786 -0.17818,-0.17818 -0.57777,0.17818 -0.75595,0 -0.37798,-0.37798 0.37797,-1.88988 0,-2.26786 -0.17818,-0.17818 -0.75596,0.25199 -0.75596,0 0,-0.25198 0.57778,0.17818 0.75596,0 0.35636,-0.35636 -0.50397,-1.5119 0,-1.5119 0.25198,0 0,1.00793 0,0.75595 0,-0.50397 0,-1.00794 0,-1.51191 0,-0.25198 0.11269,-0.53057 0,-0.75595 -0.15937,-0.31873 -0.43722,-0.59658 -0.75596,-0.75595 -0.22538,-0.11269 -0.75595,0.25199 -0.75595,0 0,-0.35414 2.33596,-1.5119 0,-1.5119"
       id="path31"
       inkscape:connector-curvature="0" />
    <path
       style="fill:none;stroke:#000000;stroke-width:0.26458332px;stroke-linecap:butt;stroke-linejoin:miter;stroke-opacity:1"
       d="m 99.785714,144.29762 c -34.017863,-4.53572 9.071426,-9.07143 6.803566,-13.60714 -0.78058,-1.56118 -2.26785,1.38062 -2.26785,0 0,-0.56346 1.00793,-1.00794 0.75595,-1.51191 -0.78059,-1.56117 -2.26786,1.38063 -2.26786,0 0,-0.56345 0.75595,-0.94845 0.75595,-1.5119 0,-1.80374 -2.26785,0.54246 -2.26785,-2.26786 0,-0.35636 0.50396,1.00793 0.75595,0.75595 0.35636,-0.35636 0,-1.00793 0,-1.51191 0,-0.25198 0.25199,0.75596 0,0.75596 -0.25199,0 0.22538,-0.64326 0,-0.75596 -0.45076,-0.22538 -1.15555,0.35636 -1.5119,0 -0.25199,-0.25198 1.11231,-0.75595 0.75595,-0.75595 -0.56346,0 -0.94845,0.75595 -1.511906,0.75595 -0.35636,0 0.755956,-0.39959 0.755956,-0.75595 0,-1.00793 -1.51191,-1.00793 -1.51191,0 0,0.25199 0.755954,-0.25198 0.755954,0 0,0.25199 -0.503968,0 -0.755954,0 -0.251984,0 -0.755952,0.25199 -0.755952,0 0,-0.25198 0.755952,0.25199 0.755952,0 0,-0.35636 -0.437214,-0.59658 -0.755952,-0.75595 -0.22538,-0.11269 -0.755952,0.25199 -0.755952,0 0,-0.35636 1.112311,-0.75595 0.755952,-0.75595 -4.687567,0 -0.755952,1.14442 -0.755952,0.75595 0,-0.35636 -0.437216,-0.59658 -0.755951,-0.75595 -0.225383,-0.11269 -0.755955,0.25198 -0.755955,0 0,-0.25199 0.755955,0.25198 0.755955,0 0,-0.35636 -0.399595,-0.75595 -0.755955,-0.75595 -0.251983,0 0.251984,0.75595 0,0.75595 -0.934132,0 -0.755949,-1.77284 -0.755951,0"
       id="path33"
       inkscape:connector-curvature="0" />
    <path
       style="fill:none;stroke:#000000;stroke-width:0.26458332px;stroke-linecap:butt;stroke-linejoin:miter;stroke-opacity:1"
       d="m 96.761905,189.65476 c -0.724395,-3.62196 -0.191543,-3.45223 -2.267858,-6.04762 -0.445233,-0.55654 -1.084273,-0.94173 -1.511906,-1.5119 -0.338071,-0.45077 -0.357529,-1.11349 -0.755951,-1.51191 -0.398423,-0.39842 -1.113483,-0.35753 -1.511906,-0.75595 -0.39842,-0.39842 -0.443405,-1.04308 -0.755952,-1.51191 -0.197673,-0.29651 -0.503968,-0.50397 -0.755951,-0.75595 -1.007939,-1.00793 -2.015874,-2.01587 -3.02381,-3.02381 -0.251986,-0.25198 -0.596585,-0.43721 -0.755954,-0.75595 -0.112688,-0.22538 0.178181,-0.57777 0,-0.75595 -0.178178,-0.17818 -0.57777,0.17818 -0.755951,0 -0.178181,-0.17818 0,-0.50397 0,-0.75596 0,-0.75595 0,-1.5119 0,-2.26785 0,-0.25199 0.251983,0.75595 0,0.75595 -0.251984,0 0,-0.50397 0,-0.75595 0,-0.25199 0,-0.50397 0,-0.75596 0,-0.25198 -0.251984,-0.75595 0,-0.75595 0.251983,0 0,1.00794 0,0.75595 0,-0.75595 0,-1.5119 0,-2.26785 0,-0.25199 0.251983,0.75595 0,0.75595 -0.251984,0 0,-0.50397 0,-0.75595 0,-0.50397 0,-1.00794 0,-1.51191 0,-0.25198 0,1.00794 0,0.75596 0,-2.79108 0,-5.07975 0,-6.04762 0,-0.25199 0.178178,0.93413 0,0.75595 -1.642737,-1.64274 -3.02381,-3.52778 -4.535715,-5.29167"
       id="path35"
       inkscape:connector-curvature="0" />
    <path
       style="fill:none;stroke:#000000;stroke-width:0.26458332px;stroke-linecap:butt;stroke-linejoin:miter;stroke-opacity:1"
       d="m 145.14286,145.05357 c -2.51984,-3.52778 -5.32904,-6.86585 -7.55953,-10.58333 -0.58989,-0.98316 1.47724,-0.72129 1.51191,-0.75596 0.39842,-0.39842 0.75595,-0.94845 0.75595,-1.5119 0,-0.35636 -0.75595,0.39959 -0.75595,0.75595 0,0.25199 0.50397,0 0.75595,0 0.25198,0 0.57777,0.17818 0.75595,0 0.45178,-0.45178 -0.81709,-1.5119 0.75595,-1.5119 0.25199,0 0.25199,0.75595 0,0.75595 -0.49401,0 0.26194,-1.5119 0.75596,-1.5119 0.25198,0 -0.17818,0.57777 0,0.75595 0.17817,0.17818 0.64326,0.22538 0.75595,0 0.22538,-0.45077 -0.35636,-1.15555 0,-1.51191 0.14761,0.14761 0.95575,1.31211 1.5119,0.75596 0.35636,-0.35636 -0.35636,-1.15555 0,-1.51191 0.17818,-0.17818 0.57777,0.17818 0.75596,0 0.17817,-0.17818 -0.1127,-0.53057 0,-0.75595 0.15936,-0.31874 0.59658,-0.43722 0.75595,-0.75595 0.22538,-0.45077 -0.50397,-1.51191 0,-1.51191 2.50718,0 0,1.41648 0,0.75595 0,-0.35636 0.59658,-0.43721 0.75595,-0.75595 0.11269,-0.22538 -0.25198,-0.75595 0,-0.75595 0.35636,0 1.00794,0.50397 0.75595,0.75595 -0.63891,0.63891 -0.9647,-1.51191 -0.75595,-1.51191 0.35636,0 0.39959,0.75596 0.75595,0.75596 0.35636,0 0.75595,-0.3996 0.75595,-0.75596 0,-1.57304 -1.41648,-0.66053 -0.75595,0 1.03759,1.03759 0.75595,-1.33403 0.75595,-1.5119 0,-1.11231 -0.17818,-0.93413 0.75596,0"
       id="path37"
       inkscape:connector-curvature="0" />
    <path
       style="fill:#550000;stroke:#000000;stroke-width:0.26458332px;stroke-linecap:butt;stroke-linejoin:miter;stroke-opacity:1"
       d="m 77.863093,134.47024 c -1.792711,-2.55113 0.672267,-5.62641 0,-8.31548 -0.08643,-0.34572 -0.64326,-0.41788 -0.755951,-0.75595 -0.226785,-0.68036 0.226784,-1.5875 0,-2.26786 -0.09825,-0.29474 -1.511904,-2.91874 -1.511904,-3.02381 0,-0.90356 2.328998,-0.69481 0.755952,-2.26786 -0.575474,-0.57547 -1.511906,3.80982 -1.511906,-0.75595 0,-0.25198 0.577773,0.17818 0.755954,0 0.178179,-0.17818 0,-0.50397 0,-0.75595"
       id="path39"
       inkscape:connector-curvature="0" />
    <path
       style="fill:#550000;stroke-width:2.85714293"
       d="m 340.52384,508.94691 c -2.3324,-7.06722 -2.34354,-10.67165 -0.0412,-13.34106 1.73503,-2.01168 7.07603,-9.12188 11.86889,-15.80045 4.81933,-6.71547 11.05989,-12.14286 13.96218,-12.14286 7.62963,0 23.47688,14.19106 21.52561,19.27597 -1.14909,2.99449 -0.27401,3.70153 3.01786,2.43832 3.42857,-1.31567 4.17281,-0.57143 2.85715,2.85714 -1.27676,3.32716 -0.55984,4.16836 2.53902,2.97922 6.07732,-2.33209 5.41536,2.81899 -0.68188,5.30607 -2.75,1.12173 -15.54165,5.65562 -28.42588,10.07531 l -23.42588,8.03581 z"
       id="path3776"
       inkscape:connector-curvature="0"
       transform="scale(0.26458333)" />
    <path
       style="fill:#550000;stroke-width:2.85714293"
       d="m 433.42857,675.87953 c -10.11566,-6.17914 -15.40721,-16.97191 -15.58542,-31.78842 l -0.12886,-10.71428 h 25.61735 c 18.1232,0 28.57112,1.40856 35.71428,4.81489 5.55332,2.64819 10.09694,5.76032 10.09694,6.91584 0,1.75577 -13.46188,6.11609 -20.62166,6.67939 -5.12479,0.4032 -13.66826,10.72551 -13.70781,16.56192 -0.0327,4.82656 -0.67833,5.45446 -2.5574,2.48718 -1.97883,-3.12479 -3.33732,-2.4535 -6.38482,3.155 -3.86233,7.10806 -3.89075,7.11238 -12.4426,1.88848 z"
       id="path3778"
       inkscape:connector-curvature="0"
       transform="scale(0.26458333)" />
    <path
       style="fill:none;stroke:#000000;stroke-width:0.26458332px;stroke-linecap:butt;stroke-linejoin:miter;stroke-opacity:1"
       d="m 72.571427,175.29167 c 4.283731,-1.00794 8.567459,-2.01588 12.85119,-3.02382 -1.427908,0 -0.671957,0 0.755954,0 0.251984,0 -0.755954,0.25199 -0.755954,0 0,-0.25198 0.503968,0 0.755954,0 0.251984,0 0.755952,-0.25198 0.755952,0 0,0.25199 -1.007938,0 -0.755952,0 0.503968,0 1.007936,0 1.511904,0 0.251984,0 -1.007936,0 -0.755952,0 0.503968,0 1.007936,0 1.511903,0 0.251987,0 -0.755951,0.25199 -0.755951,0 0,-0.25198 0.577773,-0.17817 0.755951,0 0.178181,0.17819 0.178181,0.57778 0,0.75596 -0.178178,0.17818 -0.516898,-0.0797 -0.755951,0 -0.534538,0.17818 -0.948452,0.75595 -1.511904,0.75595 -0.356359,0 1.007936,-0.50397 0.755952,-0.75595 -0.356359,-0.35636 -1.007938,0 -1.511906,0 -1.007935,0 2.771825,-0.25199 0.755954,0.75595 -4.283731,2.14187 -0.755954,-1.07093 -0.755954,0 0,0.25198 -0.57777,0.17818 -0.755951,0 -0.178181,-0.17818 0,-0.50397 0,-0.75595 -4.031748,0.75595 -8.063492,1.5119 -12.095239,2.26786"
       id="path3784"
       inkscape:connector-curvature="0" />
    <path
       style="fill:none;stroke:#000000;stroke-width:0.26458332px;stroke-linecap:butt;stroke-linejoin:miter;stroke-opacity:1"
       d="M 85.422617,172.26785 80.130951,155.6369 c -1.511904,0.50397 -3.023809,1.00794 -4.535713,1.51191 0.251984,0 0.755952,-0.25198 0.755952,0 0,0.25198 -0.577772,-0.17818 -0.755952,0 -0.17818,0.17818 0.251984,0.75595 0,0.75595 -0.356359,0 -0.755952,-0.39959 -0.755952,-0.75595 0,-0.25198 0.577772,-0.17818 0.755952,0 0.17818,0.17818 0.17818,0.57777 0,0.75595 -0.50297,0.50297 -1.008934,-0.50297 -1.511905,0 -0.178179,0.17818 0.251984,0.75595 0,0.75595 -0.251984,0 -0.251984,-0.75595 0,-0.75595 0.251984,0 0,0.50397 0,0.75595 0,0.25199 0,0.50397 0,0.75596 0,0.25198 0.251984,0.75595 0,0.75595 -0.251984,0 0.17818,-0.57777 0,-0.75595 -0.178179,-0.17818 -0.577772,-0.17818 -0.755952,0 -0.180992,0.18099 0.171847,3.02381 0,3.02381 -0.251984,0 0.251984,-0.75596 0,-0.75596 -0.356359,0 -0.503968,1.00794 -0.755952,0.75596 -0.251985,-0.25199 0.491072,-0.51756 0.755952,-0.75596 2.25537,-2.02983 4.535713,-4.03175 6.80357,-6.04762"
       id="path3786"
       inkscape:connector-curvature="0" />
    <path
       style="fill:#550000;stroke-width:2.85714293"
       d="M 274.85714,637.48509 V 613.85074 L 287,603.74205 c 14.56302,-12.12343 16.00971,-11.19329 24.86936,15.98956 9.33055,28.62766 8.38289,30.75202 -16.29793,36.53459 l -20.71429,4.85323 z"
       id="path3788"
       inkscape:connector-curvature="0"
       transform="scale(0.26458333)" />
  </g>
</svg>
