<?xml version="1.0" encoding="UTF-8" standalone="no"?>
<!-- Created with Inkscape (http://www.inkscape.org/) -->

<svg
   xmlns:dc="http://purl.org/dc/elements/1.1/"
   xmlns:cc="http://creativecommons.org/ns#"
   xmlns:rdf="http://www.w3.org/1999/02/22-rdf-syntax-ns#"
   xmlns:svg="http://www.w3.org/2000/svg"
   xmlns="http://www.w3.org/2000/svg"
   xmlns:sodipodi="http://sodipodi.sourceforge.net/DTD/sodipodi-0.dtd"
   xmlns:inkscape="http://www.inkscape.org/namespaces/inkscape"
   width="210mm"
   height="297mm"
   viewBox="0 0 210 297"
   version="1.1"
   id="svg3817"
   inkscape:version="0.92.2 5c3e80d, 2017-08-06"
   sodipodi:docname="wood.svg">
  <defs
     id="defs3811" />
  <sodipodi:namedview
     id="base"
     pagecolor="#ffffff"
     bordercolor="#666666"
     borderopacity="1.0"
     inkscape:pageopacity="0.0"
     inkscape:pageshadow="2"
     inkscape:zoom="0.35"
     inkscape:cx="144.28571"
     inkscape:cy="560"
     inkscape:document-units="mm"
     inkscape:current-layer="layer1"
     showgrid="false"
     inkscape:window-width="1366"
     inkscape:window-height="661"
     inkscape:window-x="3"
     inkscape:window-y="20"
     inkscape:window-maximized="0" />
  <metadata
     id="metadata3814">
    <rdf:RDF>
      <cc:Work
         rdf:about="">
        <dc:format>image/svg+xml</dc:format>
        <dc:type
           rdf:resource="http://purl.org/dc/dcmitype/StillImage" />
        <dc:title></dc:title>
      </cc:Work>
    </rdf:RDF>
  </metadata>
  <g
     inkscape:label="Layer 1"
     inkscape:groupmode="layer"
     id="layer1">
    <g
       id="g3903"
       transform="matrix(1,0,0,-1,46.869048,297.66668)">
      <ellipse
         ry="29.482143"
         rx="30.994047"
         cy="135.2262"
         cx="80.130951"
         id="path3890"
         style="fill:#502d16;stroke-width:0.26458332" />
      <ellipse
         ry="23.141897"
         rx="24.946428"
         cy="135.45299"
         cx="79.904167"
         id="path3892"
         style="fill:#784421;stroke-width:0.1982145" />
      <a
         id="a3896">
        <path
           sodipodi:type="spiral"
           style="fill:none;fill-rule:evenodd;stroke:#000000;stroke-width:0.26458332"
           id="path3894"
           sodipodi:cx="79.375"
           sodipodi:cy="137.49405"
           sodipodi:expansion="1"
           sodipodi:revolution="3"
           sodipodi:radius="25.40045"
           sodipodi:argument="-17.916307"
           sodipodi:t0="0"
           d="m 79.375,137.49405 c 0.758044,1.02336 -1.005479,1.52672 -1.700894,1.25992 -1.884533,-0.72301 -1.826037,-3.26608 -0.818944,-4.66171 1.801453,-2.49645 5.480543,-2.27239 7.62252,-0.37797 3.143438,2.78014 2.737002,7.72687 -0.06301,10.58334 -3.73197,3.80722 -9.984738,3.20969 -13.544146,-0.50399 -4.479153,-4.67328 -3.686633,-12.24817 0.944956,-16.50496 5.609475,-5.15554 14.514748,-4.16603 19.465772,1.38594 5.834611,6.5428 4.646993,16.78328 -1.826906,22.42658 -7.474372,6.51541 -19.053136,5.12898 -25.387398,-2.26788 -7.197392,-8.40479 -5.611696,-21.3239 2.708856,-28.34821 9.334401,-7.88021 23.595343,-6.09493 31.309024,3.14983 8.563646,10.26344 6.578566,25.86729 -3.590806,34.26984" />
      </a>
    </g>
    <g
       transform="matrix(1,0,0,-1,-14.741076,297.81789)"
       id="g3937">
      <ellipse
         style="fill:#502d16;stroke-width:0.26458332"
         id="ellipse3929"
         cx="80.130951"
         cy="135.2262"
         rx="30.994047"
         ry="29.482143" />
      <ellipse
         style="fill:#784421;stroke-width:0.1982145"
         id="ellipse3931"
         cx="79.904167"
         cy="135.45299"
         rx="24.946428"
         ry="23.141897" />
      <a
         id="a3935">
        <path
           d="m 79.375,137.49405 c 0.758044,1.02336 -1.005479,1.52672 -1.700894,1.25992 -1.884533,-0.72301 -1.826037,-3.26608 -0.818944,-4.66171 1.801453,-2.49645 5.480543,-2.27239 7.62252,-0.37797 3.143438,2.78014 2.737002,7.72687 -0.06301,10.58334 -3.73197,3.80722 -9.984738,3.20969 -13.544146,-0.50399 -4.479153,-4.67328 -3.686633,-12.24817 0.944956,-16.50496 5.609475,-5.15554 14.514748,-4.16603 19.465772,1.38594 5.834611,6.5428 4.646993,16.78328 -1.826906,22.42658 -7.474372,6.51541 -19.053136,5.12898 -25.387398,-2.26788 -7.197392,-8.40479 -5.611696,-21.3239 2.708856,-28.34821 9.334401,-7.88021 23.595343,-6.09493 31.309024,3.14983 8.563646,10.26344 6.578566,25.86729 -3.590806,34.26984"
           sodipodi:t0="0"
           sodipodi:argument="-17.916307"
           sodipodi:radius="25.40045"
           sodipodi:revolution="3"
           sodipodi:expansion="1"
           sodipodi:cy="137.49405"
           sodipodi:cx="79.375"
           id="path3933"
           style="fill:none;fill-rule:evenodd;stroke:#000000;stroke-width:0.26458332"
           sodipodi:type="spiral" />
      </a>
    </g>
    <g
       id="g3947"
       transform="matrix(1,0,0,-1,16.555357,247.62264)">
      <ellipse
         ry="29.482143"
         rx="30.994047"
         cy="135.2262"
         cx="80.130951"
         id="ellipse3939"
         style="fill:#502d16;stroke-width:0.26458332" />
      <ellipse
         ry="23.141897"
         rx="24.946428"
         cy="135.45299"
         cx="79.904167"
         id="ellipse3941"
         style="fill:#784421;stroke-width:0.1982145" />
      <a
         id="a3945">
        <path
           sodipodi:type="spiral"
           style="fill:none;fill-rule:evenodd;stroke:#000000;stroke-width:0.26458332"
           id="path3943"
           sodipodi:cx="79.375"
           sodipodi:cy="137.49405"
           sodipodi:expansion="1"
           sodipodi:revolution="3"
           sodipodi:radius="25.40045"
           sodipodi:argument="-17.916307"
           sodipodi:t0="0"
           d="m 79.375,137.49405 c 0.758044,1.02336 -1.005479,1.52672 -1.700894,1.25992 -1.884533,-0.72301 -1.826037,-3.26608 -0.818944,-4.66171 1.801453,-2.49645 5.480543,-2.27239 7.62252,-0.37797 3.143438,2.78014 2.737002,7.72687 -0.06301,10.58334 -3.73197,3.80722 -9.984738,3.20969 -13.544146,-0.50399 -4.479153,-4.67328 -3.686633,-12.24817 0.944956,-16.50496 5.609475,-5.15554 14.514748,-4.16603 19.465772,1.38594 5.834611,6.5428 4.646993,16.78328 -1.826906,22.42658 -7.474372,6.51541 -19.053136,5.12898 -25.387398,-2.26788 -7.197392,-8.40479 -5.611696,-21.3239 2.708856,-28.34821 9.334401,-7.88021 23.595343,-6.09493 31.309024,3.14983 8.563646,10.26344 6.578566,25.86729 -3.590806,34.26984" />
      </a>
    </g>
  </g>
</svg>
